<svg width="25" height="24" viewBox="0 0 25 24" fill="none" xmlns="http://www.w3.org/2000/svg">
<path d="M15.7913 2C14.7251 2.07375 13.4788 2.75624 12.7526 3.64499C12.0901 4.45123 11.5451 5.64872 11.7576 6.81246C12.9226 6.84871 14.1263 6.14997 14.8238 5.24622C15.4763 4.40498 15.9701 3.21499 15.7913 2Z" fill="black"/>
<path d="M20.0044 8.70989C18.9807 7.42615 17.5419 6.68115 16.1832 6.68115C14.3894 6.68115 13.6307 7.5399 12.3845 7.5399C11.0995 7.5399 10.1232 6.68365 8.57199 6.68365C7.04825 6.68365 5.42577 7.61489 4.39702 9.20738C2.95079 11.4499 3.19828 15.6661 5.54201 19.2573C6.38076 20.5423 7.50075 21.9873 8.96574 21.9998C10.2695 22.0123 10.637 21.1635 12.4032 21.1548C14.1694 21.1448 14.5044 22.011 15.8057 21.9973C17.2719 21.986 18.4532 20.3848 19.2919 19.0998C19.8932 18.1786 20.1169 17.7148 20.5831 16.6748C17.1919 15.3836 16.6482 10.5611 20.0044 8.70989Z" fill="black"/>
</svg>
