<svg width="25" height="24" viewBox="0 0 25 24" fill="none" xmlns="http://www.w3.org/2000/svg">
<path d="M21.7456 10.2614L13.5878 10.261C13.2275 10.261 12.9355 10.5529 12.9355 10.9132V13.5192C12.9355 13.8794 13.2275 14.1714 13.5877 14.1714H18.1817C17.6787 15.4769 16.7398 16.5702 15.5419 17.2649L17.5007 20.6559C20.643 18.8386 22.5007 15.65 22.5007 12.0805C22.5007 11.5723 22.4633 11.209 22.3884 10.7999C22.3314 10.489 22.0616 10.2614 21.7456 10.2614Z" fill="#167EE6"/>
<path d="M12.4996 18.0868C10.2514 18.0868 8.28871 16.8585 7.23461 15.0408L3.84375 16.9952C5.56934 19.9859 8.80191 21.9999 12.4996 21.9999C14.3135 21.9999 16.0251 21.5115 17.4996 20.6603V20.6557L15.5407 17.2647C14.6447 17.7844 13.6078 18.0868 12.4996 18.0868Z" fill="#12B347"/>
<path d="M17.5 20.6606V20.6559L15.5411 17.2649C14.6451 17.7845 13.6083 18.087 12.5 18.087V22.0001C14.3139 22.0001 16.0256 21.5117 17.5 20.6606Z" fill="#0F993E"/>
<path d="M6.41305 12C6.41305 10.8918 6.71547 9.85507 7.23504 8.95909L3.84418 7.00464C2.98836 8.47444 2.5 10.1814 2.5 12C2.5 13.8186 2.98836 15.5255 3.84418 16.9953L7.23504 15.0409C6.71547 14.1449 6.41305 13.1082 6.41305 12Z" fill="#FFD500"/>
<path d="M12.4996 5.91305C13.9656 5.91305 15.3123 6.43398 16.3641 7.30051C16.6236 7.51426 17.0007 7.49883 17.2384 7.26113L19.0849 5.41465C19.3546 5.14496 19.3354 4.70352 19.0473 4.45359C17.285 2.92473 14.992 2 12.4996 2C8.80191 2 5.56934 4.01395 3.84375 7.00465L7.23461 8.9591C8.28871 7.14141 10.2514 5.91305 12.4996 5.91305Z" fill="#FF4B26"/>
<path d="M16.3645 7.30051C16.624 7.51426 17.0012 7.49883 17.2389 7.26113L19.0854 5.41465C19.355 5.14496 19.3358 4.70352 19.0477 4.45359C17.2854 2.92469 14.9925 2 12.5 2V5.91305C13.966 5.91305 15.3127 6.43398 16.3645 7.30051Z" fill="#D93F21"/>
</svg>
