<svg width="13" height="12" viewBox="0 0 13 12" fill="none" xmlns="http://www.w3.org/2000/svg">
<path d="M11.6035 1.78816C11.3119 1.49084 10.9657 1.25499 10.5847 1.09408C10.2036 0.933165 9.79517 0.850342 9.38269 0.850342C8.97021 0.850342 8.56177 0.933165 8.1807 1.09408C7.79964 1.25499 7.45342 1.49084 7.16182 1.78816L6.55665 2.40491L5.95148 1.78816C5.36247 1.18788 4.5636 0.850653 3.73062 0.850653C2.89763 0.850653 2.09876 1.18788 1.50976 1.78816C0.920746 2.38844 0.589844 3.20258 0.589844 4.0515C0.589844 4.90042 0.920746 5.71457 1.50976 6.31484L2.11493 6.93159L6.55665 11.4583L10.9984 6.93159L11.6035 6.31484C11.8953 6.01767 12.1267 5.66482 12.2846 5.27647C12.4425 4.88812 12.5238 4.47187 12.5238 4.0515C12.5238 3.63113 12.4425 3.21488 12.2846 2.82653C12.1267 2.43818 11.8953 2.08534 11.6035 1.78816Z" fill="#FF0000"/>
</svg>
